<?xml version="1.0" encoding="UTF-8" standalone="no"?>
<!--Generator: Xara Designer (www.xara.com), SVG filter version: 3.0.2.3-->

<svg
   xmlns:dc="http://purl.org/dc/elements/1.1/"
   xmlns:cc="http://creativecommons.org/ns#"
   xmlns:rdf="http://www.w3.org/1999/02/22-rdf-syntax-ns#"
   xmlns:svg="http://www.w3.org/2000/svg"
   xmlns="http://www.w3.org/2000/svg"
   xmlns:xlink="http://www.w3.org/1999/xlink"
   xmlns:sodipodi="http://sodipodi.sourceforge.net/DTD/sodipodi-0.dtd"
   xmlns:inkscape="http://www.inkscape.org/namespaces/inkscape"
   version="1.1"
   overflow="visible"
   width="32"
   height="32"
   viewBox="0 0 25.600005 25.600001"
   id="svg2"
   inkscape:version="0.48.4 r9939"
   sodipodi:docname="apple.svg"
   style="fill-rule:evenodd;stroke-width:0.50099999;stroke-linejoin:bevel;overflow:visible">
  <g
     id="g3330"
     transform="matrix(0.64050449,0,0,0.64031522,0,25.600003)">
    <path
       id="path3332"
       d="M 6.231496,-15.316041 6.231496,-22.168525 C 6.231496,-23.682968 7.3039394,-24.994154 8.7360844,-24.994154 10.176556,-24.994154 11.242338,-23.676304 11.242338,-22.168525 L 11.242338,-15.316041 C 11.242338,-13.799932 10.168229,-12.490413 8.7360844,-12.490413 7.295613,-12.490413 6.231496,-13.806596 6.231496,-15.316041 z M 9.9933745,-15.316041 9.9933745,-22.168525 C 9.9933745,-23.096517 9.3638968,-23.744612 8.7360844,-23.744612 8.0999456,-23.744612 7.4804596,-23.088187 7.4804596,-22.168525 L 7.4804596,-15.316041 C 7.4804596,-14.386383 8.108272,-13.739954 8.7360844,-13.739954 9.3722232,-13.739954 9.9933745,-14.394713 9.9933745,-15.316041 z"
       style="fill:#000000;fill-opacity:1;fill-rule:evenodd;stroke:none"
       inkscape:connector-curvature="0" />
    <path
       id="path3334"
       d="M 0,-3.651992 0,-36.328324 C 0,-38.342584 1.6353097,-39.980316 3.6503044,-39.980316 L 36.318198,-39.980316 C 38.331527,-39.980316 39.968502,-38.342584 39.968502,-36.328324 L 39.968502,-3.651992 C 39.968502,-1.6360658 38.331527,0 36.318198,0 L 3.6503044,0 C 1.6353097,0 0,-1.6360658 0,-3.651992 z M 38.719538,-3.651992 38.719538,-36.328324 C 38.719538,-37.651172 37.640434,-38.730775 36.318198,-38.730775 L 3.6503044,-38.730775 C 2.326403,-38.730775 1.2489636,-37.651172 1.2489636,-36.328324 L 1.2489636,-3.651992 C 1.2489636,-2.3274785 2.326403,-1.2495411 3.6503044,-1.2495411 L 36.318198,-1.2495411 C 37.640434,-1.2495411 38.719538,-2.3274785 38.719538,-3.651992 z"
       style="fill:#000000;fill-opacity:1;fill-rule:evenodd;stroke:none"
       inkscape:connector-curvature="0" />
    <path
       id="path3336"
       d="M 28.727829,-15.301047 28.727829,-22.160194 C 28.727829,-23.674638 29.800273,-24.985823 31.232418,-24.985823 32.672889,-24.985823 33.738671,-23.667974 33.738671,-22.160194 L 33.738671,-15.301047 C 33.738671,-13.784937 32.664563,-12.475418 31.232418,-12.475418 29.791946,-12.475418 28.727829,-13.791601 28.727829,-15.301047 z M 32.489708,-15.301047 32.489708,-22.160194 C 32.489708,-23.088187 31.86023,-23.736282 31.232418,-23.736282 30.596279,-23.736282 29.976793,-23.079857 29.976793,-22.160194 L 29.976793,-15.301047 C 29.976793,-14.371388 30.604605,-13.724959 31.232418,-13.724959 31.868556,-13.724959 32.489708,-14.379719 32.489708,-15.301047 z"
       style="fill:#000000;fill-opacity:1;fill-rule:evenodd;stroke:none"
       inkscape:connector-curvature="0" />
    <path
       id="path3338"
       d="M 16.862675,-29.983988 C 17.207389,-29.983988 17.487156,-29.424193 17.487156,-28.734447 17.487156,-28.0447 17.207389,-27.484905 16.862675,-27.484905 16.517961,-27.484905 16.238193,-28.0447 16.238193,-28.734447 16.238193,-29.424193 16.517961,-29.983988 16.862675,-29.983988 z"
       style="fill:#000000;fill-opacity:1;fill-rule:evenodd;stroke:none"
       inkscape:connector-curvature="0" />
    <path
       id="path3340"
       d="M 23.107493,-29.983988 C 23.452207,-29.983988 23.731975,-29.424193 23.731975,-28.734447 23.731975,-28.0447 23.452207,-27.484905 23.107493,-27.484905 22.762779,-27.484905 22.483011,-28.0447 22.483011,-28.734447 22.483011,-29.424193 22.762779,-29.983988 23.107493,-29.983988 z"
       style="fill:#000000;fill-opacity:1;fill-rule:evenodd;stroke:none"
       inkscape:connector-curvature="0" />
    <path
       id="path3342"
       d="M 21.234047,-6.5642558 21.234047,-9.9763359 18.73612,-9.9763359 18.73612,-6.5692539 C 18.73612,-5.0531441 17.662011,-3.7436251 16.229866,-3.7436251 14.789395,-3.7436251 13.725278,-5.0598083 13.725278,-6.5692539 L 13.725278,-9.9763359 12.651169,-9.9763359 C 11.230681,-9.9763359 10.030011,-11.085928 10.030011,-12.513737 L 10.030011,-23.736282 9.9917092,-23.736282 9.9917092,-24.984157 C 9.9900439,-25.077456 9.9900439,-25.170755 9.9900439,-25.262388 9.9900439,-28.677801 11.791882,-31.678365 14.511292,-33.417726 L 12.56957,-36.489931 C 12.384724,-36.781491 12.471318,-37.168016 12.762743,-37.351282 13.054168,-37.536214 13.440514,-37.449579 13.623695,-37.158019 L 15.603719,-34.025836 C 16.927621,-34.657271 18.41472,-35.012141 19.985084,-35.012141 21.513815,-35.012141 22.964278,-34.673932 24.2632,-34.07082 L 26.214914,-37.158019 C 26.398096,-37.449579 26.784442,-37.536214 27.075867,-37.351282 27.367291,-37.168016 27.453886,-36.781491 27.26904,-36.489931 L 25.362288,-33.476038 C 27.751972,-31.979921 29.452228,-29.519158 29.873545,-26.651878 L 29.96014,-25.748876 29.978458,-25.665574 29.978458,-12.513737 C 29.978458,-11.085928 28.777788,-9.9763359 27.3573,-9.9763359 L 26.244889,-9.9763359 26.244889,-6.5642558 C 26.244889,-5.0481459 25.170781,-3.7386269 23.738636,-3.7386269 22.298164,-3.7386269 21.234047,-5.0548102 21.234047,-6.5642558 z M 24.995926,-6.5642558 24.995926,-9.9763359 22.483011,-9.9763359 22.483011,-6.5642558 C 22.483011,-5.6345972 23.110823,-4.988168 23.738636,-4.988168 24.374775,-4.988168 24.995926,-5.6429275 24.995926,-6.5642558 z M 17.487156,-6.5692539 17.487156,-9.9763359 14.974242,-9.9763359 14.974242,-6.5692539 C 14.974242,-5.6395954 15.602054,-4.9931661 16.229866,-4.9931661 16.866005,-4.9931661 17.487156,-5.6479256 17.487156,-6.5692539 z M 13.725278,-11.225877 13.725278,-11.242538 14.974242,-11.242538 14.974242,-11.225877 17.487156,-11.225877 17.487156,-11.242538 18.73612,-11.242538 18.73612,-11.225877 21.234047,-11.225877 21.234047,-11.242538 22.483011,-11.242538 22.483011,-11.225877 24.995926,-11.225877 24.995926,-11.242538 26.244889,-11.242538 26.244889,-11.225877 27.3573,-11.225877 C 28.139984,-11.225877 28.729494,-11.827323 28.729494,-12.513737 L 28.719503,-23.736282 11.278974,-23.736282 11.278974,-12.513737 C 11.278974,-11.827323 11.868485,-11.225877 12.651169,-11.225877 L 13.725278,-11.225877 z M 28.719503,-24.984157 28.719503,-25.630586 C 28.516338,-30.138931 24.694509,-33.7626 19.985084,-33.7626 15.14077,-33.7626 11.239008,-29.935672 11.239008,-25.262388 L 11.242338,-25.049133 11.25566,-24.984157 28.719503,-24.984157 z"
       style="fill:#000000;fill-opacity:1;fill-rule:evenodd;stroke:none"
       inkscape:connector-curvature="0" />
  </g>
</svg>
