<svg xmlns="http://www.w3.org/2000/svg" width="32" height="32" viewBox="0 0 32 32" ><g transform="matrix(0.64050449,0,0,0.64031522,0,25.600003)"><path style="fill:----------;" d="M 10.607865,-6.6059071 C 9.4904584,-7.0774006 8.1765487,-8.0487106 7.6986119,-9.1749636 7.1873695,-10.387851 7.7086036,-11.582413 8.2947839,-12.508739 8.909274,-13.455058 9.7302595,-14.356394 10.627848,-14.986163 11.500457,-15.595939 12.542926,-16.020783 13.490473,-15.855843 14.434689,-15.680907 15.102468,-14.937847 15.437191,-14.564651 15.630364,-14.344732 15.750264,-14.201451 15.835194,-14.101488 L 15.998392,-13.926552 16.186569,-14.016519 C 16.423039,-14.149803 16.831034,-14.426368 17.696982,-15.024482 18.801066,-15.794199 20.522971,-17.008753 21.930136,-18.554852 23.35229,-20.100951 24.466365,-21.98026 24.915992,-23.048202 25.124153,-23.541354 25.142471,-23.754609 25.119157,-23.881229 25.077525,-23.921214 25.032562,-23.954535 24.952628,-23.999519 24.547964,-24.2311 23.602082,-24.564311 23.06253,-25.019144 22.394751,-25.585603 22.284842,-26.33866 22.313152,-26.941772 22.346458,-27.548216 22.509656,-28.121338 22.794419,-28.774432 23.075852,-29.420861 23.487178,-30.178916 24.011742,-30.90365 24.531311,-31.63005 25.16412,-32.323128 25.622073,-32.754637 26.111667,-33.20947 26.448054,-33.394402 26.894351,-33.559341 27.36063,-33.727613 28.0001,-33.882556 28.959304,-33.469374 29.821921,-33.106174 31.009269,-32.251488 31.675383,-31.325162 32.384795,-30.342189 32.486377,-29.3159 32.47139,-28.449551 32.451406,-27.521559 32.281547,-26.688531 31.307355,-24.614293 30.336494,-22.545053 28.518003,-19.16796 25.945138,-16.117414 23.373938,-13.066868 20.066683,-10.377855 17.996734,-8.7851068 15.943437,-7.210685 14.99256,-6.6242337 13.946761,-6.3493347 12.904292,-6.0711036 11.796878,-6.0977604 10.607865,-6.6059071 z M 13.625361,-7.5572244 C 14.401384,-7.7621491 15.17241,-8.1919913 17.235698,-9.7764094 19.288995,-11.355829 22.509656,-13.978199 24.99093,-16.922118 27.467209,-19.859373 29.232411,-23.13317 30.176627,-25.145765 31.114182,-27.143364 31.207438,-27.796458 31.224091,-28.474542 31.235748,-29.220934 31.144158,-29.927342 30.661225,-30.593764 30.148317,-31.310167 29.154142,-32.031569 28.471375,-32.31813 27.878534,-32.574703 27.582113,-32.479738 27.322329,-32.384772 27.0359,-32.279811 26.839396,-32.181514 26.476364,-31.843305 26.07503,-31.46511 25.495511,-30.832009 25.025901,-30.172252 24.554625,-29.524156 24.186597,-28.846072 23.93847,-28.276281 23.693673,-27.709823 23.583764,-27.286645 23.56045,-26.876795 23.542132,-26.466946 23.622066,-26.183717 23.870193,-25.973794 24.239886,-25.660575 25.014244,-25.404003 25.570449,-25.087453 25.77861,-24.969163 26.04339,-24.792561 26.229902,-24.469346 L 26.286522,-24.351056 C 26.504674,-23.826249 26.346472,-23.223137 26.066704,-22.56338 25.560457,-21.362154 24.369779,-19.359556 22.851039,-17.710162 21.340626,-16.050772 19.512143,-14.766243 18.408059,-13.996526 17.347272,-13.266794 16.824373,-12.900262 16.434696,-12.755315 16.331449,-12.716996 16.22154,-12.685341 16.1083,-12.670346 15.796892,-12.628695 15.537108,-12.713664 15.305633,-12.875271 L 15.199055,-12.961906 C 15.010878,-13.131844 14.801052,-13.396746 14.502966,-13.733289 14.141599,-14.139807 13.733604,-14.53966 13.26899,-14.624629 12.811036,-14.706265 12.114947,-14.501341 11.345586,-13.961539 10.601203,-13.44173 9.8867962,-12.663682 9.3455787,-11.833987 8.7993652,-10.970971 8.5945352,-10.266229 8.8493238,-9.6631176 9.1440792,-8.9633746 10.11494,-8.1686665 11.095793,-7.757151 12.018361,-7.362296 12.839346,-7.3456355 13.625361,-7.5572244 z" /><path style="fill:----------;" d="M 0,-3.651992 0,-36.328324 C 0,-38.342584 1.6353097,-39.980316 3.6503044,-39.980316 L 36.318198,-39.980316 C 38.331527,-39.980316 39.968502,-38.342584 39.968502,-36.328324 L 39.968502,-3.651992 C 39.968502,-1.6360658 38.331527,0 36.318198,0 L 3.6503044,0 C 1.6353097,0 0,-1.6360658 0,-3.651992 z M 38.719538,-3.651992 38.719538,-36.328324 C 38.719538,-37.651172 37.640434,-38.730775 36.318198,-38.730775 L 3.6503044,-38.730775 C 2.326403,-38.730775 1.2489636,-37.651172 1.2489636,-36.328324 L 1.2489636,-3.651992 C 1.2489636,-2.3274785 2.326403,-1.2495411 3.6503044,-1.2495411 L 36.318198,-1.2495411 C 37.640434,-1.2495411 38.719538,-2.3274785 38.719538,-3.651992 z" /></g></svg>
