<?xml version="1.0" encoding="UTF-8" standalone="no"?>
<!--Generator: Xara Designer (www.xara.com), SVG filter version: 3.0.2.3-->

<svg
   xmlns:dc="http://purl.org/dc/elements/1.1/"
   xmlns:cc="http://creativecommons.org/ns#"
   xmlns:rdf="http://www.w3.org/1999/02/22-rdf-syntax-ns#"
   xmlns:svg="http://www.w3.org/2000/svg"
   xmlns="http://www.w3.org/2000/svg"
   xmlns:xlink="http://www.w3.org/1999/xlink"
   xmlns:sodipodi="http://sodipodi.sourceforge.net/DTD/sodipodi-0.dtd"
   xmlns:inkscape="http://www.inkscape.org/namespaces/inkscape"
   version="1.1"
   overflow="visible"
   width="32"
   height="32"
   viewBox="0 0 25.600005 25.600001"
   id="svg2"
   inkscape:version="0.48.4 r9939"
   sodipodi:docname="odnoklassniki.svg"
   style="fill-rule:evenodd;stroke-width:0.50099999;stroke-linejoin:bevel;overflow:visible">
  <g
     id="g3336"
     transform="matrix(0.64050449,0,0,0.64031522,0,25.600003)">
    <path
       id="path3338"
       d="M 21.801909,-5.8628467 20.776094,-5.7212321 C 20.358107,-5.6829128 19.93346,-5.6645862 19.505482,-5.6645862 11.933431,-5.6645862 5.7802038,-11.727359 5.7802038,-19.219608 5.7802038,-19.687769 5.8035178,-20.1476 5.8501457,-20.602433 L 6.0200048,-21.705361 5.6553074,-22.421765 C 5.2356556,-23.396407 5.0008504,-24.469346 5.0008504,-25.600597 5.0008504,-30.100611 8.6994481,-33.732611 13.237349,-33.732611 14.44135,-33.732611 15.588732,-33.474372 16.621208,-33.012875 L 17.392235,-32.603026 18.319799,-32.721316 C 18.711141,-32.754637 19.107479,-32.771297 19.507147,-32.771297 27.074201,-32.771297 33.232425,-26.716854 33.232425,-19.219608 33.232425,-18.719791 33.204115,-18.226639 33.149161,-17.741817 L 32.947661,-16.528929 33.220768,-15.900827 C 33.538837,-15.036144 33.713692,-14.099821 33.713692,-13.128512 33.713692,-8.6268316 30.02009,-4.9948322 25.480524,-4.9948322 24.426398,-4.9948322 23.417236,-5.1897606 22.489672,-5.5479624 L 21.801909,-5.8628467 z M 32.409774,-13.128512 C 32.409774,-14.216445 32.14999,-15.244401 31.692036,-16.155733 31.628755,-16.280687 31.608772,-16.420636 31.638747,-16.588907 31.825259,-17.441927 31.928507,-18.319938 31.928507,-19.219608 31.928507,-25.978792 26.373116,-31.466776 19.507147,-31.466776 18.779417,-31.466776 18.068341,-31.408464 17.382243,-31.290175 17.224041,-31.261852 17.062509,-31.293507 16.927621,-31.378475 15.860173,-32.041565 14.594557,-32.42809 13.237349,-32.42809 9.4005331,-32.42809 6.3047685,-29.362549 6.3047685,-25.600597 6.3047685,-24.337728 6.652813,-23.163159 7.2573114,-22.148532 7.3405757,-22.008583 7.3688855,-21.841978 7.3355798,-21.682037 7.1707166,-20.885663 7.0841218,-20.064298 7.0841218,-19.219608 7.0841218,-12.465422 12.637847,-6.9691071 19.505482,-6.9691071 20.281504,-6.9691071 21.04254,-7.0407474 21.781926,-7.1773639 21.926806,-7.2040208 22.076681,-7.180696 22.206574,-7.1107217 23.1791,-6.5925787 24.294841,-6.2993531 25.480524,-6.2993531 29.315675,-6.2993531 32.409774,-9.3648938 32.409774,-13.128512 z"
       style="fill:#000000;fill-opacity:1;fill-rule:evenodd;stroke:none"
       inkscape:connector-curvature="0" />
    <path
       id="path3340"
       d="M 15.478823,-11.02595 C 14.602883,-11.535763 13.885145,-12.220512 13.337266,-13.065201 12.787722,-13.913223 12.486306,-14.791234 12.486306,-15.679241 12.486306,-16.30068 12.712785,-16.860474 13.157416,-17.303645 13.602047,-17.75348 14.178235,-17.976731 14.824366,-17.976731 15.370579,-17.976731 15.87183,-17.796797 16.273164,-17.426933 16.636196,-17.102052 16.917629,-16.645553 17.124124,-16.120746 17.313967,-15.64592 17.520462,-15.261062 17.725292,-14.972834 17.890155,-14.739586 18.134952,-14.527998 18.481331,-14.354728 18.787744,-14.198119 19.252358,-14.096489 19.903485,-14.096489 20.777759,-14.096489 21.432216,-14.296416 21.8935,-14.631293 22.346458,-14.96617 22.50799,-15.304379 22.50799,-15.7009 22.50799,-16.054104 22.406408,-16.277355 22.234884,-16.448959 21.995082,-16.690537 21.667021,-16.892129 21.227386,-17.038742 20.72447,-17.205348 20.023385,-17.393612 19.139119,-17.591872 17.891821,-17.876768 16.817712,-18.221641 15.945103,-18.618162 15.017539,-19.04134 14.254838,-19.636121 13.688642,-20.39251 13.094135,-21.195549 12.807706,-22.176855 12.807706,-23.286447 12.807706,-24.359387 13.112453,-25.342359 13.718617,-26.192047 14.326446,-27.038403 15.194059,-27.674836 16.291482,-28.104678 L 17.104141,-28.374579 C 17.965093,-28.609492 18.919301,-28.726116 19.945117,-28.726116 21.039209,-28.726116 22.028388,-28.591166 22.877683,-28.30627 23.708661,-28.031371 24.434725,-27.648179 25.01924,-27.158359 25.582106,-26.685199 26.026737,-26.158726 26.314831,-25.588935 26.594599,-25.029141 26.747806,-24.452686 26.747806,-23.874565 26.747806,-23.261457 26.522992,-22.703328 26.108336,-22.243497 25.668701,-21.752011 25.095843,-21.495439 24.438055,-21.495439 23.895173,-21.495439 23.38393,-21.640385 22.997584,-22.005251 22.707824,-22.28015 22.443044,-22.670007 22.174933,-23.168158 21.901827,-23.717956 21.602075,-24.107812 21.280675,-24.364385 21.055862,-24.549317 20.57626,-24.71259 19.720303,-24.71259 18.960933,-24.71259 18.416385,-24.547651 18.045027,-24.287746 17.672003,-24.02451 17.585408,-23.799592 17.585408,-23.594668 17.585408,-23.429728 17.62371,-23.329765 17.690321,-23.24313 17.793569,-23.10818 17.951771,-22.971563 18.188241,-22.843277 18.459683,-22.696664 18.739451,-22.583372 19.014223,-22.50007 19.323966,-22.408437 19.858522,-22.266822 20.602904,-22.08189 21.563774,-21.860305 22.456366,-21.610396 23.252373,-21.337163 24.075023,-21.0556 24.804418,-20.704063 25.413912,-20.277553 26.056712,-19.829384 26.567955,-19.251263 26.930987,-18.55985 27.304011,-17.843447 27.478866,-16.995425 27.478866,-16.057436 27.478866,-14.906192 27.169123,-13.841583 26.556298,-12.908592 25.936812,-11.97227 25.035893,-11.247536 23.90683,-10.746053 22.781097,-10.242905 21.45553,-10.001327 19.99008,-10.001327 18.231539,-10.001327 16.704472,-10.332872 15.478823,-11.02595 z M 23.398918,-11.887301 C 24.344799,-12.308813 25.045884,-12.886934 25.512164,-13.596673 25.985105,-14.316409 26.229902,-15.137774 26.229902,-16.057436 26.229902,-16.847146 26.083357,-17.485245 25.823572,-17.981729 25.557127,-18.489876 25.179107,-18.918052 24.699505,-19.252929 24.206581,-19.599468 23.587095,-19.901024 22.847708,-20.155931 22.101661,-20.412503 21.249035,-20.649083 20.311479,-20.867336 19.557105,-21.0556 18.999235,-21.200547 18.656186,-21.302176 18.301481,-21.408804 17.941779,-21.555417 17.593735,-21.745347 17.240694,-21.936943 16.929286,-22.180187 16.699477,-22.485075 16.449684,-22.80829 16.336445,-23.184818 16.336445,-23.594668 16.336445,-24.317735 16.724456,-24.88586 17.327289,-25.309038 17.971754,-25.762205 18.79274,-25.962131 19.720303,-25.962131 20.66785,-25.962131 21.507154,-25.79386 22.068355,-25.335695 22.562945,-24.935842 22.965944,-24.382711 23.282348,-23.742946 23.517153,-23.311438 23.708661,-23.054866 23.858536,-22.909919 23.945131,-22.828282 24.109994,-22.74498 24.438055,-22.74498 24.737807,-22.74498 24.974277,-22.849941 25.177442,-23.078191 25.398925,-23.324767 25.498842,-23.586337 25.498842,-23.874565 25.498842,-24.227768 25.403921,-24.614293 25.197425,-25.027475 25.005918,-25.410667 24.681187,-25.81052 24.214907,-26.200377 23.776937,-26.570241 23.197418,-26.88346 22.483011,-27.121705 21.793583,-27.353287 20.944288,-27.476575 19.945117,-27.476575 18.696153,-27.476575 17.618714,-27.289977 16.717795,-26.931775 L 16.10497,-26.64688 C 15.520455,-26.326997 15.065832,-25.92881 14.732775,-25.463981 14.286479,-24.837544 14.05667,-24.111145 14.05667,-23.286447 14.05667,-22.39844 14.281483,-21.690367 14.689478,-21.140569 15.115791,-20.570778 15.705302,-20.099285 16.463006,-19.756077 17.235698,-19.402874 18.226543,-19.081325 19.413891,-18.809758 20.318141,-18.608166 21.062523,-18.409905 21.622059,-18.223307 22.208239,-18.026713 22.719481,-17.735153 23.11915,-17.330302 23.55712,-16.892129 23.756954,-16.335667 23.756954,-15.7009 23.756954,-14.83955 23.347294,-14.151469 22.631221,-13.62333 21.896831,-13.088526 20.962606,-12.846948 19.903485,-12.846948 19.144115,-12.846948 18.459683,-12.963572 17.9168,-13.240137 17.420545,-13.490045 17.005889,-13.828255 16.707803,-14.251432 16.433031,-14.636291 16.183238,-15.114449 15.963421,-15.659249 15.800223,-16.070764 15.615376,-16.340665 15.435525,-16.502272 15.273993,-16.648885 15.082485,-16.72719 14.824366,-16.72719 14.482982,-16.72719 14.23652,-16.618896 14.041682,-16.422302 13.833521,-16.212379 13.73527,-15.972467 13.73527,-15.679241 13.73527,-15.082794 13.935104,-14.438031 14.384731,-13.746618 14.826031,-13.065201 15.400554,-12.517069 16.099974,-12.110552 17.082492,-11.55409 18.379749,-11.250868 19.99008,-11.250868 21.323973,-11.250868 22.466358,-11.470787 23.398918,-11.887301 z"
       style="fill:#000000;fill-opacity:1;fill-rule:evenodd;stroke:none"
       inkscape:connector-curvature="0" />
    <path
       id="path3342"
       d="M 0,-3.651992 0,-36.328324 C 0,-38.342584 1.6353097,-39.980316 3.6503044,-39.980316 L 36.318198,-39.980316 C 38.331527,-39.980316 39.968502,-38.342584 39.968502,-36.328324 L 39.968502,-3.651992 C 39.968502,-1.6360658 38.331527,0 36.318198,0 L 3.6503044,0 C 1.6353097,0 0,-1.6360658 0,-3.651992 z M 38.719538,-3.651992 38.719538,-36.328324 C 38.719538,-37.651172 37.640434,-38.730775 36.318198,-38.730775 L 3.6503044,-38.730775 C 2.326403,-38.730775 1.2489636,-37.651172 1.2489636,-36.328324 L 1.2489636,-3.651992 C 1.2489636,-2.3274785 2.326403,-1.2495411 3.6503044,-1.2495411 L 36.318198,-1.2495411 C 37.640434,-1.2495411 38.719538,-2.3274785 38.719538,-3.651992 z"
       style="fill:#000000;fill-opacity:1;fill-rule:evenodd;stroke:none"
       inkscape:connector-curvature="0" />
  </g>
</svg>
