<svg xmlns="http://www.w3.org/2000/svg"	width="32" height="32" ><g transform="matrix(0.64050449,0,0,0.64031522,0,25.600003)"><path style="fill:----------" d="M 26.386439,-10.88267 23.901834,-14.024849 C 23.763615,-14.193121 23.652041,-14.289752 23.573773,-14.344732 L 23.487178,-14.394713 23.450541,-14.309744 22.884345,-11.780673 22.789423,-11.257532 C 22.629556,-10.71773 22.279846,-10.166266 21.567104,-10.027984 L 21.129134,-9.9996607 18.256518,-9.9996607 C 13.147424,-9.9996607 8.5345849,-17.278654 5.3055976,-26.34699 L 5.2822836,-26.431959 C 5.1723748,-26.976759 5.1174204,-27.581537 5.383866,-28.068025 5.6902784,-28.629485 6.2764587,-28.809419 6.8909488,-28.827746 L 11.305619,-28.797757 C 11.578726,-28.796091 11.820192,-28.617823 11.89846,-28.356252 12.89097,-25.092451 14.109959,-23.098183 15.600389,-20.824018 L 15.642021,-20.750712 C 15.803553,-20.410837 16.141606,-20.507468 16.316461,-20.777369 L 16.423039,-21.092253 16.424705,-26.215372 C 16.424705,-26.968428 16.081656,-27.075056 15.249014,-27.193346 14.867663,-27.248326 14.626197,-27.633184 14.742767,-27.999716 15.144101,-29.272582 16.461341,-29.92401 18.288158,-29.92401 L 19.971761,-29.963995 C 21.333964,-29.963995 22.56794,-29.37921 22.56794,-27.636516 L 22.56794,-20.897325 22.687841,-20.830683 C 22.910989,-20.752378 23.348959,-20.735718 23.703665,-21.29218 25.234062,-23.451387 26.997598,-26.03044 27.245726,-27.378278 27.255717,-27.433258 27.27237,-27.484905 27.295684,-27.534887 27.607092,-28.189647 28.458053,-28.651144 28.801102,-28.756105 28.849395,-28.7711 28.945982,-28.799423 29.059221,-28.799423 L 33.657072,-28.796091 33.941836,-28.792758 C 34.05008,-28.77943 34.156658,-28.756105 34.259906,-28.719452 34.536343,-28.619489 34.731181,-28.437889 34.859408,-28.231298 35.110866,-27.821448 35.075895,-27.361617 35.100874,-27.178351 35.110866,-27.116707 35.110866,-27.053397 35.100874,-26.990087 34.669566,-24.291078 31.56714,-21.265523 30.263222,-19.30291 29.9285,-18.841413 29.923504,-18.49654 30.234912,-18.118346 L 34.562987,-12.698669 C 35.062573,-11.983932 35.035928,-11.202552 34.504702,-10.644424 34.158323,-10.279558 33.655407,-10.076299 33.124181,-10.014655 L 32.624596,-9.9996607 28.025079,-9.9996607 28.106678,-10.004659 C 27.50218,-9.9246882 27.032569,-10.174596 26.679529,-10.529466 L 26.386439,-10.88267 z M 28.025079,-11.249202 32.654571,-11.247536 C 33.142499,-11.219213 33.470561,-11.369158 33.600453,-11.505774 33.645415,-11.552424 33.707031,-11.627396 33.647081,-11.789004 L 33.547164,-11.970603 29.264051,-17.330302 C 28.52966,-18.224973 28.649561,-19.202947 29.235741,-20.014316 30.476378,-21.881963 33.140834,-24.550983 33.768646,-26.753507 L 33.853576,-27.130036 33.831927,-27.368282 33.798622,-27.549882 33.670395,-27.549882 29.14082,-27.549882 28.992609,-27.479907 C 28.852726,-27.401603 28.679536,-27.279981 28.556305,-27.163357 L 28.431409,-27.008414 28.276537,-26.453618 C 27.743646,-24.962499 26.409753,-22.971563 25.272363,-21.348826 L 24.724484,-20.575776 24.378105,-20.149266 C 23.458868,-19.254595 22.099995,-19.417868 21.545456,-20.164261 21.413898,-20.340863 21.318977,-20.567446 21.318977,-20.827351 L 21.318977,-27.636516 C 21.318977,-28.442887 20.952614,-28.714454 19.986749,-28.714454 L 18.303146,-28.674469 C 17.492152,-28.674469 16.939278,-28.536186 16.569584,-28.336259 L 16.364754,-28.202975 16.509634,-28.151327 C 17.12579,-27.876428 17.673668,-27.339959 17.673668,-26.213706 L 17.668672,-21.010617 C 17.548772,-19.386213 15.563752,-18.671476 14.676156,-19.932679 L 14.556255,-20.13927 C 13.230688,-22.160194 12.073315,-24.029508 11.105785,-26.763504 L 10.847666,-27.551548 6.9026058,-27.576538 C 6.4962763,-27.566542 6.4729623,-27.456583 6.4796234,-27.468245 6.4529789,-27.421595 6.4213384,-27.294975 6.4513136,-27.013412 L 6.4996068,-26.71852 7.1157622,-25.055798 C 10.341419,-16.702199 14.424698,-11.249202 18.256518,-11.249202 L 21.155779,-11.247536 C 21.548786,-11.227543 21.633716,-11.665715 21.653699,-11.962273 L 21.668687,-12.05224 22.244875,-14.632959 22.261528,-14.696269 C 22.341462,-14.934515 22.464693,-15.166097 22.654535,-15.34603 22.912654,-15.59094 23.247377,-15.7009 23.600417,-15.654251 24.093341,-15.589274 24.52465,-15.237737 24.876025,-14.809561 L 27.38561,-11.630728 C 27.643729,-11.260864 27.813588,-11.225877 27.941815,-11.242538 L 28.025079,-11.249202 z" /><path style="fill:----------" d="M 0,-3.651992 0,-36.328324 C 0,-38.342584 1.6353097,-39.980316 3.6503044,-39.980316 L 36.318198,-39.980316 C 38.331527,-39.980316 39.968502,-38.342584 39.968502,-36.328324 L 39.968502,-3.651992 C 39.968502,-1.6360658 38.331527,0 36.318198,0 L 3.6503044,0 C 1.6353097,0 0,-1.6360658 0,-3.651992 z M 38.719538,-3.651992 38.719538,-36.328324 C 38.719538,-37.651172 37.640434,-38.730775 36.318198,-38.730775 L 3.6503044,-38.730775 C 2.326403,-38.730775 1.2489636,-37.651172 1.2489636,-36.328324 L 1.2489636,-3.651992 C 1.2489636,-2.3274785 2.326403,-1.2495411 3.6503044,-1.2495411 L 36.318198,-1.2495411 C 37.640434,-1.2495411 38.719538,-2.3274785 38.719538,-3.651992 z" /></g></svg>
